<svg xmlns="http://www.w3.org/2000/svg" xmlns:xlink="http://www.w3.org/1999/xlink" width="2457" height="1544" fill="none" xmlns:v="https://vecta.io/nano"><g opacity=".15" filter="url(#A)"><path d="M1382.21 1046.93c0-243.041-262.25-440.066-585.754-440.066S210.707 803.889 210.707 1046.93 472.956 1487 796.456 1487s585.754-197.03 585.754-440.07z" fill="url(#B)"/><path d="M1814.25 935.307c0-243.043-262.25-440.068-585.75-440.068S642.747 692.264 642.747 935.307 904.996 1375.38 1228.5 1375.38s585.75-197.03 585.75-440.073z" fill="url(#C)"/><path d="M1228.5 544.606c0-243.043-262.25-440.068-585.751-440.068S57 301.563 57 544.606s262.249 440.068 585.749 440.068S1228.5 787.649 1228.5 544.606z" fill="url(#D)"/><path d="M1772.7 497.068c0-243.043-262.25-440.0682-585.75-440.0682S601.202 254.025 601.202 497.068s262.249 440.068 585.748 440.068 585.75-197.025 585.75-440.068z" fill="url(#E)"/><path d="M2400 935.307c0-243.043-262.25-440.068-585.75-440.068S1228.5 692.264 1228.5 935.307s262.25 440.073 585.75 440.073S2400 1178.35 2400 935.307z" fill="url(#F)"/><path d="M2321.07 497.387c0-243.043-262.25-440.0684-585.75-440.0684S1149.57 254.344 1149.57 497.387s262.25 440.068 585.75 440.068 585.75-197.025 585.75-440.068z" fill="url(#G)"/></g><defs><filter id="A" x="0" y="-.00024" width="2457" height="1544" filterUnits="userSpaceOnUse" color-interpolation-filters="sRGB"><feFlood flood-opacity="0"/><feBlend in="SourceGraphic"/><feGaussianBlur stdDeviation="28.5"/></filter><radialGradient id="B" cx="0" cy="0" r="1" gradientTransform="translate(796.456 1046.93) rotate(-90) scale(440.068 585.749)" xlink:href="#H"><stop stop-color="#76e4fe"/><stop offset="1" stop-color="#1f9efb" stop-opacity="0"/></radialGradient><radialGradient id="C" cx="0" cy="0" r="1" gradientTransform="translate(1228.5 935.307) rotate(-90) scale(440.068 585.749)" xlink:href="#H"><stop stop-color="#fad374"/><stop offset="1" stop-color="#f9cb76" stop-opacity="0"/></radialGradient><radialGradient id="D" cx="0" cy="0" r="1" gradientTransform="translate(642.749 544.606) rotate(-90) scale(440.068 585.749)" xlink:href="#H"><stop stop-color="#4f1ff2"/><stop offset="1" stop-color="#4e23f2" stop-opacity="0"/></radialGradient><radialGradient id="E" cx="0" cy="0" r="1" gradientTransform="translate(1186.95 497.068) rotate(-90) scale(440.068 585.749)" xlink:href="#H"><stop stop-color="#f02ba6"/><stop offset="1" stop-color="#f024a9" stop-opacity="0"/></radialGradient><radialGradient id="F" cx="0" cy="0" r="1" gradientTransform="translate(1814.25 935.307) rotate(-90) scale(440.068 585.749)" xlink:href="#H"><stop stop-color="#f57690"/><stop offset="1" stop-color="#f5818d" stop-opacity="0"/></radialGradient><radialGradient id="G" cx="0" cy="0" r="1" gradientTransform="translate(1735.32 497.387) rotate(-90) scale(440.068 585.749)" xlink:href="#H"><stop stop-color="#2b7df8"/><stop offset="1" stop-color="#2a80f9" stop-opacity="0"/></radialGradient><linearGradient id="H" gradientUnits="userSpaceOnUse"/></defs></svg>