<svg xmlns="http://www.w3.org/2000/svg" xmlns:xlink="http://www.w3.org/1999/xlink" width="2096" height="877" fill="none" xmlns:v="https://vecta.io/nano"><g opacity=".15" filter="url(#A)"><path d="M918.012 291.806c0 129.679 221.838 234.805 495.488 234.805 273.64 0 495.48-105.126 495.48-234.805S1687.14 57 1413.5 57c-273.65 0-495.488 105.126-495.488 234.806z" fill="url(#B)"/><path d="M552.549 351.365c0 129.679 221.836 234.805 495.481 234.805 273.65 0 495.49-105.126 495.49-234.805s-221.84-234.806-495.49-234.806c-273.645 0-495.481 105.126-495.481 234.806z" fill="url(#C)"/><path d="M1048.03 559.83c0 129.679 221.84 234.805 495.49 234.805 273.64 0 495.48-105.126 495.48-234.805s-221.84-234.806-495.48-234.806c-273.65 0-495.49 105.126-495.49 234.806z" fill="url(#D)"/><path d="M587.692 585.194C587.692 714.874 809.528 820 1083.18 820c273.64 0 495.48-105.126 495.48-234.806s-221.84-234.805-495.48-234.805c-273.652 0-495.488 105.126-495.488 234.805z" fill="url(#E)"/><path d="M57.0615 351.365c0 129.679 221.8355 234.805 495.4845 234.805s495.484-105.126 495.484-234.805-221.836-234.806-495.484-234.806S57.0615 221.685 57.0615 351.365z" fill="url(#F)"/><path d="M123.829 585.024c0 129.68 221.836 234.806 495.484 234.806S1114.8 714.704 1114.8 585.024 892.962 350.219 619.313 350.219 123.829 455.345 123.829 585.024z" fill="url(#G)"/></g><defs><filter id="A" x=".06152" y="0" width="2095.94" height="877" filterUnits="userSpaceOnUse" color-interpolation-filters="sRGB"><feFlood flood-opacity="0"/><feBlend in="SourceGraphic"/><feGaussianBlur stdDeviation="28.5"/></filter><radialGradient id="B" cx="0" cy="0" r="1" gradientTransform="translate(1413.5 291.806) rotate(90) scale(234.806 495.484)" xlink:href="#H"><stop stop-color="#76e4fe"/><stop offset="1" stop-color="#1f9efb" stop-opacity="0"/></radialGradient><radialGradient id="C" cx="0" cy="0" r="1" gradientTransform="translate(1048.03 351.365) rotate(90) scale(234.806 495.484)" xlink:href="#H"><stop stop-color="#fad374"/><stop offset="1" stop-color="#f9cb76" stop-opacity="0"/></radialGradient><radialGradient id="D" cx="0" cy="0" r="1" gradientTransform="translate(1543.52 559.83) rotate(90) scale(234.806 495.484)" xlink:href="#H"><stop stop-color="#4f1ff2"/><stop offset="1" stop-color="#4e23f2" stop-opacity="0"/></radialGradient><radialGradient id="E" cx="0" cy="0" r="1" gradientTransform="translate(1083.18 585.194) rotate(90) scale(234.806 495.484)" xlink:href="#H"><stop stop-color="#f02ba6"/><stop offset="1" stop-color="#f024a9" stop-opacity="0"/></radialGradient><radialGradient id="F" cx="0" cy="0" r="1" gradientTransform="translate(552.546 351.365) rotate(90) scale(234.806 495.484)" xlink:href="#H"><stop stop-color="#f57690"/><stop offset="1" stop-color="#f5818d" stop-opacity="0"/></radialGradient><radialGradient id="G" cx="0" cy="0" r="1" gradientTransform="translate(619.313 585.024) rotate(90) scale(234.806 495.484)" xlink:href="#H"><stop stop-color="#2b7df8"/><stop offset="1" stop-color="#2a80f9" stop-opacity="0"/></radialGradient><linearGradient id="H" gradientUnits="userSpaceOnUse"/></defs></svg>