<svg xmlns="http://www.w3.org/2000/svg" xmlns:xlink="http://www.w3.org/1999/xlink" width="2096" height="1269" fill="none" xmlns:v="https://vecta.io/nano"><g opacity=".15" filter="url(#A)"><path d="M918.012 856.56c0-196.303 221.838-355.439 495.488-355.439 273.64 0 495.48 159.136 495.48 355.439S1687.14 1212 1413.5 1212c-273.65 0-495.488-159.14-495.488-355.44z" fill="url(#B)"/><path d="M552.549 766.402c0-196.304 221.836-355.439 495.481-355.439 273.65 0 495.49 159.135 495.49 355.439s-221.84 355.438-495.49 355.438c-273.645 0-495.481-159.134-495.481-355.438z" fill="url(#C)"/><path d="M1048.03 450.836c0-196.304 221.84-355.4395 495.49-355.4395 273.64 0 495.48 159.1355 495.48 355.4395s-221.84 355.44-495.48 355.44c-273.65 0-495.49-159.136-495.49-355.44z" fill="url(#D)"/><path d="M587.692 412.44C587.692 216.136 809.528 57 1083.18 57c273.64 0 495.48 159.136 495.48 355.44s-221.84 355.439-495.48 355.439c-273.652 0-495.488-159.136-495.488-355.439z" fill="url(#E)"/><path d="M57.0615 766.402c0-196.304 221.8355-355.439 495.4845-355.439s495.484 159.135 495.484 355.439-221.836 355.438-495.484 355.438S57.0615 962.706 57.0615 766.402z" fill="url(#F)"/><path d="M123.83 412.697c0-196.303 221.835-355.4392 495.484-355.4392S1114.8 216.394 1114.8 412.697s-221.838 355.44-495.486 355.44S123.83 609.001 123.83 412.697z" fill="url(#G)"/></g><defs><filter id="A" x=".06152" y="0" width="2095.94" height="1269" filterUnits="userSpaceOnUse" color-interpolation-filters="sRGB"><feFlood flood-opacity="0"/><feBlend in="SourceGraphic"/><feGaussianBlur stdDeviation="28.5"/></filter><radialGradient id="B" cx="0" cy="0" r="1" gradientTransform="translate(1413.5 856.56) rotate(-90) scale(355.44 495.484)" xlink:href="#H"><stop stop-color="#76e4fe"/><stop offset="1" stop-color="#1f9efb" stop-opacity="0"/></radialGradient><radialGradient id="C" cx="0" cy="0" r="1" gradientTransform="translate(1048.03 766.402) rotate(-90) scale(355.44 495.484)" xlink:href="#H"><stop stop-color="#fad374"/><stop offset="1" stop-color="#f9cb76" stop-opacity="0"/></radialGradient><radialGradient id="D" cx="0" cy="0" r="1" gradientTransform="translate(1543.52 450.836) rotate(-90) scale(355.44 495.484)" xlink:href="#H"><stop stop-color="#4f1ff2"/><stop offset="1" stop-color="#4e23f2" stop-opacity="0"/></radialGradient><radialGradient id="E" cx="0" cy="0" r="1" gradientTransform="translate(1083.18 412.44) rotate(-90) scale(355.44 495.484)" xlink:href="#H"><stop stop-color="#f02ba6"/><stop offset="1" stop-color="#f024a9" stop-opacity="0"/></radialGradient><radialGradient id="F" cx="0" cy="0" r="1" gradientTransform="translate(552.546 766.402) rotate(-90) scale(355.44 495.484)" xlink:href="#H"><stop stop-color="#f57690"/><stop offset="1" stop-color="#f5818d" stop-opacity="0"/></radialGradient><radialGradient id="G" cx="0" cy="0" r="1" gradientTransform="translate(619.313 412.697) rotate(-90) scale(355.44 495.484)" xlink:href="#H"><stop stop-color="#2b7df8"/><stop offset="1" stop-color="#2a80f9" stop-opacity="0"/></radialGradient><linearGradient id="H" gradientUnits="userSpaceOnUse"/></defs></svg>