<svg xmlns="http://www.w3.org/2000/svg" xmlns:xlink="http://www.w3.org/1999/xlink" width="2096" height="1033" fill="none" xmlns:v="https://vecta.io/nano"><g opacity=".15" filter="url(#A)"><path d="M1177.99 339.813c0 156.193-221.837 282.813-495.486 282.813S187.02 496.006 187.02 339.813 408.856 57 682.504 57s495.486 126.62 495.486 282.813z" fill="url(#B)"/><path d="M1543.45 411.549c0 156.194-221.84 282.813-495.48 282.813-273.652 0-495.488-126.619-495.488-282.813s221.836-282.813 495.488-282.813c273.64 0 495.48 126.62 495.48 282.813z" fill="url(#C)"/><path d="M1047.97 662.636c0 156.193-221.837 282.813-495.486 282.813S57 818.829 57 662.636s221.836-282.813 495.484-282.813 495.486 126.62 495.486 282.813z" fill="url(#D)"/><path d="M1508.31 693.187c0 156.194-221.84 282.813-495.49 282.813S517.339 849.381 517.339 693.187s221.836-282.813 495.481-282.813 495.49 126.62 495.49 282.813z" fill="url(#E)"/><path d="M2038.94 411.549c0 156.194-221.84 282.813-495.49 282.813-273.64 0-495.48-126.619-495.48-282.813s221.84-282.813 495.48-282.813c273.65 0 495.49 126.62 495.49 282.813z" fill="url(#F)"/><path d="M1972.17 692.982c0 156.193-221.84 282.813-495.48 282.813-273.65 0-495.488-126.62-495.488-282.813s221.838-282.813 495.488-282.813c273.64 0 495.48 126.62 495.48 282.813z" fill="url(#G)"/></g><defs><filter id="A" x="0" y="0" width="2095.94" height="1033" filterUnits="userSpaceOnUse" color-interpolation-filters="sRGB"><feFlood flood-opacity="0"/><feBlend in="SourceGraphic"/><feGaussianBlur stdDeviation="28.5"/></filter><radialGradient id="B" cx="0" cy="0" r="1" gradientTransform="translate(682.504 339.813) rotate(90) scale(282.813 495.484)" xlink:href="#H"><stop stop-color="#76e4fe"/><stop offset="1" stop-color="#1f9efb" stop-opacity="0"/></radialGradient><radialGradient id="C" cx="0" cy="0" r="1" gradientTransform="translate(1047.97 411.549) rotate(90) scale(282.813 495.484)" xlink:href="#H"><stop stop-color="#fad374"/><stop offset="1" stop-color="#f9cb76" stop-opacity="0"/></radialGradient><radialGradient id="D" cx="0" cy="0" r="1" gradientTransform="translate(552.484 662.636) rotate(90) scale(282.813 495.484)" xlink:href="#H"><stop stop-color="#4f1ff2"/><stop offset="1" stop-color="#4e23f2" stop-opacity="0"/></radialGradient><radialGradient id="E" cx="0" cy="0" r="1" gradientTransform="translate(1012.82 693.187) rotate(90) scale(282.813 495.484)" xlink:href="#H"><stop stop-color="#f02ba6"/><stop offset="1" stop-color="#f024a9" stop-opacity="0"/></radialGradient><radialGradient id="F" cx="0" cy="0" r="1" gradientTransform="translate(1543.45 411.549) rotate(90) scale(282.813 495.484)" xlink:href="#H"><stop stop-color="#f57690"/><stop offset="1" stop-color="#f5818d" stop-opacity="0"/></radialGradient><radialGradient id="G" cx="0" cy="0" r="1" gradientTransform="translate(1476.69 692.982) rotate(90) scale(282.813 495.484)" xlink:href="#H"><stop stop-color="#2b7df8"/><stop offset="1" stop-color="#2a80f9" stop-opacity="0"/></radialGradient><linearGradient id="H" gradientUnits="userSpaceOnUse"/></defs></svg>